<svg id="advise" xmlns="http://www.w3.org/2000/svg" width="40.781" height="40.781" viewBox="0 0 40.781 40.781">
  <path id="Path_16455" data-name="Path 16455" d="M14.21,191.807a5.936,5.936,0,0,0,1.889-2.651h.345a2.623,2.623,0,0,0,1.316-4.9v-3A5.268,5.268,0,0,0,12.5,176H8.551a5.268,5.268,0,0,0-5.262,5.262v3a2.623,2.623,0,0,0,1.316,4.9H4.95a5.94,5.94,0,0,0,1.889,2.651A7.238,7.238,0,0,0,0,199.022v2.631a.657.657,0,0,0,.658.658H20.391a.657.657,0,0,0,.658-.658v-2.631a7.238,7.238,0,0,0-6.838-7.215Zm-2.424,1.3-1.262,1.578L9.262,193.1Zm4.658-5.262h-.039a5.862,5.862,0,0,0,.039-.658v-1.973a1.316,1.316,0,0,1,0,2.631ZM4.6,181.262a3.951,3.951,0,0,1,3.947-3.947H12.5a3.951,3.951,0,0,1,3.947,3.947v2.631H13.813a1.317,1.317,0,0,1-1.316-1.316v-2.631H11.182v.658a3.293,3.293,0,0,1-3.289,3.289H4.6Zm0,6.578a1.316,1.316,0,0,1,0-2.631v1.973a5.862,5.862,0,0,0,.039.658Zm1.316-.658v-1.973H7.893a4.594,4.594,0,0,0,3.494-1.614,2.634,2.634,0,0,0,2.426,1.614h1.316v1.973a4.6,4.6,0,1,1-9.209,0ZM19.733,201H1.316v-1.973a5.926,5.926,0,0,1,5.92-5.92h.341l2.434,3.042a.658.658,0,0,0,1.027,0l2.434-3.042h.341a5.926,5.926,0,0,1,5.92,5.92Zm0,0" transform="translate(0 -161.529)" fill="#b98036"/>
  <path id="Path_16456" data-name="Path 16456" d="M260.391,0H240.658A.657.657,0,0,0,240,.658V19.075a.657.657,0,0,0,.658.658h19.733a.657.657,0,0,0,.658-.658V.658A.657.657,0,0,0,260.391,0Zm-12.5,14.471h-6.578V9.209h6.578Zm11.84,3.947H241.316V15.786h6.7a1.971,1.971,0,0,0,1.852,1.316h3.947a4.61,4.61,0,0,0,4.6-4.6V8.551a1.976,1.976,0,0,0-1.973-1.973h-1.567l.727-1.454a1.722,1.722,0,0,0-1.54-2.492h-.339a1.721,1.721,0,0,0-1.433.767l-2.119,3.18h-.306a1.971,1.971,0,0,0-1.852,1.316h-6.7V1.316h18.417Zm-6.48-10.837a.659.659,0,0,0,.56.313h2.631a.658.658,0,0,1,.658.658v.658h-2.631v1.316H257.1V11.84h-2.631v1.316h2.565a3.294,3.294,0,0,1-3.222,2.631h-3.947a.658.658,0,0,1-.658-.658V8.551a.658.658,0,0,1,.658-.658h.658a.659.659,0,0,0,.547-.293l2.315-3.473a.405.405,0,0,1,.338-.181h.339a.407.407,0,0,1,.364.588l-1.2,2.406a.657.657,0,0,0,.028.64Zm0,0" transform="translate(-220.267)" fill="#b98036"/>
  <path id="Path_16457" data-name="Path 16457" d="M129.973,115.947A1.973,1.973,0,1,0,128,113.973,1.976,1.976,0,0,0,129.973,115.947Zm0-2.631a.658.658,0,1,1-.658.658A.658.658,0,0,1,129.973,113.316Zm0,0" transform="translate(-117.476 -102.791)" fill="#b98036"/>
  <path id="Path_16458" data-name="Path 16458" d="M162.631,53.262A2.631,2.631,0,1,0,160,50.631,2.634,2.634,0,0,0,162.631,53.262Zm0-3.947a1.316,1.316,0,1,1-1.316,1.316A1.317,1.317,0,0,1,162.631,49.316Zm0,0" transform="translate(-146.845 -44.053)" fill="#b98036"/>
  <path id="Path_16459" data-name="Path 16459" d="M91.289,315.289A3.293,3.293,0,0,0,94.578,312H93.262a1.973,1.973,0,0,1-3.947,0H88A3.293,3.293,0,0,0,91.289,315.289Zm0,0" transform="translate(-80.765 -286.347)" fill="#b98036"/>
</svg>
