<svg xmlns="http://www.w3.org/2000/svg" xmlns:xlink="http://www.w3.org/1999/xlink" width="1415.295" height="760.232" viewBox="0 0 1415.295 760.232">
  <defs>
    <clipPath id="clip-path">
      <rect id="Rectangle_16062" data-name="Rectangle 16062" width="1415.295" height="760.232" fill="none"/>
    </clipPath>
    <radialGradient id="radial-gradient" cx="0.5" cy="0.5" r="0.5" gradientTransform="matrix(0.91, 0.414, -0.414, 0.91, 0.188, -0.648)" gradientUnits="objectBoundingBox">
      <stop offset="0" stop-color="#fff"/>
      <stop offset="0.007" stop-color="#fefcf7"/>
      <stop offset="0.018" stop-color="#fcf4e1"/>
      <stop offset="0.031" stop-color="#f8e7be"/>
      <stop offset="0.046" stop-color="#f3d68d"/>
      <stop offset="0.062" stop-color="#edc04f"/>
      <stop offset="0.071" stop-color="#eab32b"/>
      <stop offset="0.121" stop-color="#e6a026"/>
      <stop offset="0.163" stop-color="#e38d22"/>
      <stop offset="0.697" stop-color="#4f310b" stop-opacity="0.349"/>
      <stop offset="1" stop-opacity="0"/>
    </radialGradient>
    <radialGradient id="radial-gradient-2" cx="0.499" cy="0.498" r="0.008" gradientTransform="matrix(-0.465, -0.793, 69.579, -70.041, -173.99, 128.523)" gradientUnits="objectBoundingBox">
      <stop offset="0" stop-color="#fff"/>
      <stop offset="0.025" stop-color="#fefcf7"/>
      <stop offset="0.064" stop-color="#fcf4e1"/>
      <stop offset="0.112" stop-color="#f8e7be"/>
      <stop offset="0.167" stop-color="#f3d68d"/>
      <stop offset="0.226" stop-color="#edc04f"/>
      <stop offset="0.259" stop-color="#eab32b"/>
      <stop offset="0.289" stop-color="#e6a026"/>
      <stop offset="0.313" stop-color="#e38d22"/>
      <stop offset="0.333" stop-color="#d3831f" stop-opacity="0.929"/>
      <stop offset="0.399" stop-color="#a26418" stop-opacity="0.714"/>
      <stop offset="0.469" stop-color="#764911" stop-opacity="0.522"/>
      <stop offset="0.542" stop-color="#52320c" stop-opacity="0.361"/>
      <stop offset="0.617" stop-color="#342007" stop-opacity="0.231"/>
      <stop offset="0.697" stop-color="#1d1204" stop-opacity="0.129"/>
      <stop offset="0.782" stop-color="#0c0701" stop-opacity="0.055"/>
      <stop offset="0.876" stop-color="#030100" stop-opacity="0.012"/>
      <stop offset="1" stop-opacity="0"/>
    </radialGradient>
    <radialGradient id="radial-gradient-3" cx="0.499" cy="0.498" r="0.008" gradientTransform="matrix(-0.466, -0.793, 69.647, -70.078, -181.124, 141.795)" xlink:href="#radial-gradient-2"/>
    <radialGradient id="radial-gradient-4" cx="0.501" cy="0.502" r="0.008" gradientTransform="matrix(0.466, 0.793, -69.639, 70.091, 177.318, -175.937)" xlink:href="#radial-gradient-2"/>
    <radialGradient id="radial-gradient-5" cx="0.501" cy="0.502" r="0.008" gradientTransform="matrix(0.465, 0.793, -69.562, 70.07, 159.569, -158.644)" xlink:href="#radial-gradient-2"/>
    <radialGradient id="radial-gradient-6" cx="0.501" cy="0.502" r="0.008" gradientTransform="matrix(0.466, 0.793, -69.639, 70.091, 145.719, -144.932)" xlink:href="#radial-gradient-2"/>
    <radialGradient id="radial-gradient-7" cx="0.501" cy="0.502" r="0.008" gradientTransform="matrix(0.465, 0.793, -69.562, 70.07, 132.356, -131.941)" xlink:href="#radial-gradient-2"/>
    <radialGradient id="radial-gradient-8" cx="0.501" cy="0.502" r="0.008" gradientTransform="matrix(0.466, 0.793, -69.639, 70.091, 118.495, -118.24)" xlink:href="#radial-gradient-2"/>
    <radialGradient id="radial-gradient-9" cx="0.499" cy="0.498" r="0.008" gradientTransform="matrix(-0.465, -0.793, 69.579, -70.041, -120.903, 155.123)" xlink:href="#radial-gradient-2"/>
    <radialGradient id="radial-gradient-10" cx="0.499" cy="0.498" r="0.008" gradientTransform="matrix(-0.466, -0.793, 69.647, -70.078, -140.561, 175.618)" xlink:href="#radial-gradient-2"/>
    <radialGradient id="radial-gradient-11" cx="0.499" cy="0.498" r="0.008" gradientTransform="matrix(-0.465, -0.793, 69.579, -70.041, -159.066, 195.161)" xlink:href="#radial-gradient-2"/>
    <radialGradient id="radial-gradient-12" cx="0.499" cy="0.498" r="0.008" gradientTransform="matrix(-0.466, -0.793, 69.647, -70.078, -178.737, 215.641)" xlink:href="#radial-gradient-2"/>
    <radialGradient id="radial-gradient-13" cx="0.5" cy="0.5" r="0.5" gradientTransform="matrix(-0.91, -0.414, 0.414, -0.91, 0.812, 1.648)" xlink:href="#radial-gradient"/>
    <radialGradient id="radial-gradient-14" cx="0.501" cy="0.502" r="0.008" gradientTransform="matrix(0.465, 0.793, -69.579, 70.041, 175.242, -127.733)" xlink:href="#radial-gradient-2"/>
    <radialGradient id="radial-gradient-15" cx="0.501" cy="0.502" r="0.008" gradientTransform="matrix(0.466, 0.793, -69.647, 70.078, 182.375, -141.004)" xlink:href="#radial-gradient-2"/>
  </defs>
  <g id="Group_46" data-name="Group 46" clip-path="url(#clip-path)">
    <rect id="Rectangle_1" data-name="Rectangle 1" width="1415.295" height="760.232" fill="#13120d"/>
    <g id="Group_50" data-name="Group 50">
      <g id="Group_16" data-name="Group 16" transform="translate(-785 -489)">
        <path id="Path_235" data-name="Path 235" d="M871.374,219.592A42.8,42.8,0,1,1,850.151,162.9,42.8,42.8,0,0,1,871.374,219.592Z" transform="translate(344.142 975.556)" opacity="0.46" fill="url(#radial-gradient)" style="mix-blend-mode: screen;isolation: isolate"/>
        <g id="Group_15" data-name="Group 15">
          <g id="Group_13" data-name="Group 13">
            <path id="Path_112" data-name="Path 112" d="M1369.383,529.993c243.522-186.881,257.924-191.952,259.536-189.827,1.629,2.114-10.117,10.618-253.656,197.511C1131.75,724.557,933.007,874.342,931.38,872.225S1125.84,716.891,1369.383,529.993Z" fill="url(#radial-gradient-2)" style="mix-blend-mode: screen;isolation: isolate"/>
          </g>
          <g id="Group_14" data-name="Group 14">
            <path id="Path_113" data-name="Path 113" d="M1265.885,442.828c243.405-187.033,257.8-192.113,259.417-189.988,1.63,2.112-10.11,10.624-253.533,197.668-243.4,187.031-442.047,336.94-443.675,334.824S1022.458,629.877,1265.885,442.828Z" fill="url(#radial-gradient-3)" style="mix-blend-mode: screen;isolation: isolate"/>
          </g>
        </g>
      </g>
      <g id="Group_45" data-name="Group 45" transform="matrix(0.995, 0.105, -0.105, 0.995, -23.665, -84.463)">
        <g id="Group_30" data-name="Group 30" transform="translate(78.647 830.214) rotate(-82)">
          <g id="Group_29" data-name="Group 29">
            <path id="Path_226" data-name="Path 226" d="M178.267,303.466C-65.138,490.5-79.538,495.578-81.151,493.454c-1.63-2.112,10.111-10.624,253.533-197.668,243.4-187.032,442.047-336.94,443.675-334.824S421.694,116.417,178.267,303.466Z" fill="url(#radial-gradient-4)" style="mix-blend-mode: screen;isolation: isolate"/>
          </g>
        </g>
        <g id="Group_37" data-name="Group 37" transform="translate(-58.704 593.201) rotate(-82)">
          <g id="Group_33" data-name="Group 33">
            <g id="Group_31" data-name="Group 31">
              <path id="Path_227" data-name="Path 227" d="M2.039,469.511C-241.482,656.391-255.885,661.462-257.5,659.337c-1.629-2.113,10.117-10.618,253.656-197.511,243.513-186.88,442.256-336.665,443.883-334.547S245.582,282.612,2.039,469.511Z" fill="url(#radial-gradient-5)" style="mix-blend-mode: screen;isolation: isolate"/>
            </g>
            <g id="Group_32" data-name="Group 32">
              <path id="Path_228" data-name="Path 228" d="M-133.658,600.29c-243.4,187.032-257.8,192.112-259.417,189.987-1.63-2.112,10.11-10.624,253.533-197.668,243.4-187.031,442.047-336.94,443.675-334.824S109.769,413.24-133.658,600.29Z" fill="url(#radial-gradient-6)" style="mix-blend-mode: screen;isolation: isolate"/>
            </g>
          </g>
          <g id="Group_36" data-name="Group 36">
            <g id="Group_34" data-name="Group 34">
              <path id="Path_229" data-name="Path 229" d="M-258.3,724.752C-501.816,911.633-516.219,916.7-517.83,914.579c-1.629-2.113,10.117-10.618,253.655-197.511C-20.661,530.188,178.082,380.4,179.708,382.521S-14.752,537.854-258.3,724.752Z" fill="url(#radial-gradient-7)" style="mix-blend-mode: screen;isolation: isolate"/>
            </g>
            <g id="Group_35" data-name="Group 35">
              <path id="Path_230" data-name="Path 230" d="M-393.991,855.531c-243.4,187.032-257.805,192.113-259.418,189.988-1.63-2.112,10.111-10.624,253.533-197.668C-156.479,660.82,42.171,510.911,43.8,513.027S-150.564,668.482-393.991,855.531Z" fill="url(#radial-gradient-8)" style="mix-blend-mode: screen;isolation: isolate"/>
            </g>
          </g>
        </g>
        <g id="Group_44" data-name="Group 44">
          <g id="Group_40" data-name="Group 40">
            <g id="Group_38" data-name="Group 38">
              <path id="Path_231" data-name="Path 231" d="M1277.024,397.831C1520.545,210.95,1534.947,205.879,1536.559,208c1.629,2.113-10.117,10.618-253.656,197.511C1039.39,592.4,840.647,742.18,839.021,740.063S1033.48,584.729,1277.024,397.831Z" fill="url(#radial-gradient-9)" style="mix-blend-mode: screen;isolation: isolate"/>
            </g>
            <g id="Group_39" data-name="Group 39">
              <path id="Path_232" data-name="Path 232" d="M1412.72,267.052C1656.125,80.02,1670.524,74.94,1672.137,77.064c1.631,2.112-10.11,10.624-253.533,197.668-243.4,187.032-442.047,336.94-443.674,334.824S1169.293,454.1,1412.72,267.052Z" fill="url(#radial-gradient-10)" style="mix-blend-mode: screen;isolation: isolate"/>
            </g>
          </g>
          <g id="Group_43" data-name="Group 43">
            <g id="Group_41" data-name="Group 41">
              <path id="Path_233" data-name="Path 233" d="M1537.358,142.589C1780.879-44.292,1795.281-49.363,1796.893-47.238c1.629,2.113-10.117,10.618-253.656,197.511-243.513,186.88-442.256,336.665-443.883,334.548S1293.814,329.487,1537.358,142.589Z" fill="url(#radial-gradient-11)" style="mix-blend-mode: screen;isolation: isolate"/>
            </g>
            <g id="Group_42" data-name="Group 42">
              <path id="Path_234" data-name="Path 234" d="M1673.054,11.81c243.405-187.032,257.8-192.112,259.417-189.988,1.631,2.112-10.11,10.624-253.533,197.668-243.4,187.032-442.047,336.94-443.674,334.824S1429.627,198.859,1673.054,11.81Z" fill="url(#radial-gradient-12)" style="mix-blend-mode: screen;isolation: isolate"/>
            </g>
          </g>
        </g>
      </g>
    </g>
    <g id="Group_51" data-name="Group 51" transform="translate(-562.042 -924.417)">
      <g id="Group_16-2" data-name="Group 16" transform="translate(1292.955 1114.64)">
        <path id="Path_235-2" data-name="Path 235" d="M793.464,184.133a42.8,42.8,0,1,1,21.223,56.689A42.8,42.8,0,0,1,793.464,184.133Z" transform="translate(-379.942 -159.049)" opacity="0.46" fill="url(#radial-gradient-13)" style="mix-blend-mode: screen;isolation: isolate"/>
        <g id="Group_15-2" data-name="Group 15" transform="translate(0 347.985)">
          <g id="Group_13-2" data-name="Group 13" transform="translate(0 0)">
            <path id="Path_112-2" data-name="Path 112" d="M1191.025,682.137C947.5,869.018,933.1,874.089,931.489,871.964c-1.629-2.114,10.117-10.618,253.656-197.511C1428.658,487.573,1627.4,337.788,1629.028,339.9S1434.568,495.239,1191.025,682.137Z" transform="translate(-931.37 -339.883)" fill="url(#radial-gradient-14)" style="mix-blend-mode: screen;isolation: isolate"/>
          </g>
          <g id="Group_14-2" data-name="Group 14" transform="translate(103.617 86.893)">
            <path id="Path_113-2" data-name="Path 113" d="M1087.62,595.083C844.215,782.116,829.816,787.2,828.2,785.071c-1.63-2.112,10.11-10.624,253.533-197.668,243.4-187.031,442.047-336.94,443.675-334.824S1331.047,408.034,1087.62,595.083Z" transform="translate(-828.084 -252.557)" fill="url(#radial-gradient-15)" style="mix-blend-mode: screen;isolation: isolate"/>
          </g>
        </g>
      </g>
      <g id="Group_45-2" data-name="Group 45" transform="matrix(-0.995, -0.105, 0.105, -0.995, 1945.513, 1760.289)">
        <g id="Group_30-2" data-name="Group 30" transform="translate(52.296 1083.717) rotate(-82)">
          <g id="Group_29-2" data-name="Group 29" transform="translate(0)">
            <path id="Path_226-2" data-name="Path 226" d="M259.537,342.526C16.132,529.558,1.732,534.638.119,532.514-1.511,530.4,10.23,521.89,253.652,334.846,497.049,147.814,695.7-2.094,697.327.022S502.964,155.477,259.537,342.526Z" fill="url(#radial-gradient-4)" style="mix-blend-mode: screen;isolation: isolate"/>
          </g>
        </g>
        <g id="Group_37-2" data-name="Group 37" transform="translate(0 1436.54) rotate(-82)">
          <g id="Group_33-2" data-name="Group 33" transform="translate(260.334 0)">
            <g id="Group_31-2" data-name="Group 31" transform="translate(135.578 0)">
              <path id="Path_227-2" data-name="Path 227" d="M259.655,342.254C16.134,529.134,1.731,534.205.119,532.08c-1.629-2.113,10.117-10.618,253.656-197.511C497.288,147.689,696.031-2.1,697.658.022S503.2,155.355,259.655,342.254Z" transform="translate(0)" fill="url(#radial-gradient-5)" style="mix-blend-mode: screen;isolation: isolate"/>
            </g>
            <g id="Group_32-2" data-name="Group 32" transform="translate(0 130.506)">
              <path id="Path_228-2" data-name="Path 228" d="M259.536,342.527C16.131,529.559,1.732,534.639.119,532.514c-1.63-2.112,10.11-10.624,253.533-197.668C497.049,147.815,695.7-2.094,697.327.022S502.963,155.477,259.536,342.527Z" fill="url(#radial-gradient-6)" style="mix-blend-mode: screen;isolation: isolate"/>
            </g>
          </g>
          <g id="Group_36-2" data-name="Group 36" transform="translate(0 255.242)">
            <g id="Group_34-2" data-name="Group 34" transform="translate(135.579 0)">
              <path id="Path_229-2" data-name="Path 229" d="M259.654,342.253C16.133,529.134,1.73,534.205.119,532.08c-1.629-2.113,10.117-10.618,253.655-197.511C497.288,147.689,696.031-2.1,697.657.022S503.2,155.355,259.654,342.253Z" transform="translate(0)" fill="url(#radial-gradient-7)" style="mix-blend-mode: screen;isolation: isolate"/>
            </g>
            <g id="Group_35-2" data-name="Group 35" transform="translate(0 130.506)">
              <path id="Path_230-2" data-name="Path 230" d="M259.537,342.526C16.132,529.558,1.732,534.639.119,532.514-1.511,530.4,10.23,521.89,253.652,334.846,497.049,147.815,695.7-2.094,697.327.022S502.964,155.477,259.537,342.526Z" fill="url(#radial-gradient-8)" style="mix-blend-mode: screen;isolation: isolate"/>
            </g>
          </g>
        </g>
        <g id="Group_44-2" data-name="Group 44" transform="translate(862.651 0)">
          <g id="Group_40-2" data-name="Group 40" transform="translate(0 255.242)">
            <g id="Group_38-2" data-name="Group 38" transform="translate(0 130.94)">
              <path id="Path_231-2" data-name="Path 231" d="M438.013,190.11C681.534,3.229,695.936-1.842,697.548.283,699.177,2.4,687.431,10.9,443.892,197.794,200.379,384.674,1.636,534.459.01,532.342S194.469,377.008,438.013,190.11Z" fill="url(#radial-gradient-9)" style="mix-blend-mode: screen;isolation: isolate"/>
            </g>
            <g id="Group_39-2" data-name="Group 39" transform="translate(135.909 0)">
              <path id="Path_232-2" data-name="Path 232" d="M437.8,190.271C681.2,3.239,695.6-1.841,697.217.283c1.631,2.112-10.11,10.624-253.533,197.668C200.287,384.983,1.637,534.891.01,532.775S194.373,377.32,437.8,190.271Z" transform="translate(0)" fill="url(#radial-gradient-10)" style="mix-blend-mode: screen;isolation: isolate"/>
            </g>
          </g>
          <g id="Group_43-2" data-name="Group 43" transform="translate(260.333 0)">
            <g id="Group_41-2" data-name="Group 41" transform="translate(0 130.94)">
              <path id="Path_233-2" data-name="Path 233" d="M438.014,190.11C681.535,3.229,695.937-1.842,697.549.283,699.178,2.4,687.432,10.9,443.893,197.794,200.38,384.674,1.637,534.459.01,532.342S194.47,377.008,438.014,190.11Z" fill="url(#radial-gradient-11)" style="mix-blend-mode: screen;isolation: isolate"/>
            </g>
            <g id="Group_42-2" data-name="Group 42" transform="translate(135.91 0)">
              <path id="Path_234-2" data-name="Path 234" d="M437.8,190.271C681.2,3.239,695.6-1.841,697.217.283c1.631,2.112-10.11,10.624-253.533,197.668C200.287,384.983,1.637,534.891.01,532.775S194.373,377.32,437.8,190.271Z" transform="translate(0)" fill="url(#radial-gradient-12)" style="mix-blend-mode: screen;isolation: isolate"/>
            </g>
          </g>
        </g>
      </g>
    </g>
  </g>
</svg>
