<svg id="bullhorn" xmlns="http://www.w3.org/2000/svg" width="42.09" height="42.791" viewBox="0 0 42.09 42.791">
  <path id="Path_16438" data-name="Path 16438" d="M26.552,47.433h-1.4V40.558a.7.7,0,1,0-1.4,0v6.875H5.507V33.4h5.836a.7.7,0,1,0,0-1.4H4.806a.7.7,0,0,0-.7.7V47.433H2.7a.7.7,0,0,0-.7.7v1.4a3.507,3.507,0,0,0,3.507,3.507H23.746a3.507,3.507,0,0,0,3.507-3.507v-1.4A.7.7,0,0,0,26.552,47.433Zm-.7,2.1a2.1,2.1,0,0,1-2.1,2.1h-1.4v-.7a.7.7,0,1,0-1.4,0v.7H8.313v-.7a.7.7,0,1,0-1.4,0v.7h-1.4a2.1,2.1,0,0,1-2.1-2.1v-.7H25.851Z" transform="translate(-2 -10.254)" fill="#b98036"/>
  <path id="Path_16439" data-name="Path 16439" d="M52.507,7.4h1.4a.7.7,0,1,0,0-1.4h-1.4a2.1,2.1,0,0,0-2.1,2.1v.7h-.7a.7.7,0,0,0,0,1.4h.7v2.1a.7.7,0,1,0,1.4,0v-2.1h.7a.7.7,0,0,0,0-1.4h-.7V8.1A.7.7,0,0,1,52.507,7.4Z" transform="translate(-16.03 -2.493)" fill="#b98036"/>
  <path id="Path_16440" data-name="Path 16440" d="M54.522,2H46.1A2.1,2.1,0,0,0,44,4.1v1.4a.7.7,0,1,0,1.4,0V4.1a.7.7,0,0,1,.7-.7h8.418a.7.7,0,0,1,.7.7v8.418a.7.7,0,0,1-.7.7H46.1a.7.7,0,0,1-.7-.7V8.313a.7.7,0,1,0-1.4,0v4.209a2.1,2.1,0,0,0,2.1,2.1h8.418a2.1,2.1,0,0,0,2.1-2.1V4.1A2.1,2.1,0,0,0,54.522,2Z" transform="translate(-14.537 -1.299)" fill="#b98036"/>
  <path id="Path_16441" data-name="Path 16441" d="M49,40.806A2.806,2.806,0,1,0,51.806,38,2.806,2.806,0,0,0,49,40.806Zm4.209,0a1.4,1.4,0,1,1-1.4-1.4A1.4,1.4,0,0,1,53.209,40.806Z" transform="translate(-16.03 -12.045)" fill="#b98036"/>
  <path id="Path_16442" data-name="Path 16442" d="M54.522,33H46.1A2.1,2.1,0,0,0,44,35.1v8.418a2.1,2.1,0,0,0,2.1,2.1h8.418a2.1,2.1,0,0,0,2.1-2.1v-1.4a.7.7,0,0,0-1.4,0v1.4a.7.7,0,0,1-.7.7H46.1a.7.7,0,0,1-.7-.7V35.1a.7.7,0,0,1,.7-.7h8.418a.7.7,0,0,1,.7.7v4.209a.7.7,0,0,0,1.4,0V35.1A2.1,2.1,0,0,0,54.522,33Z" transform="translate(-14.537 -10.552)" fill="#b98036"/>
  <path id="Path_16443" data-name="Path 16443" d="M24.33,11.508a.7.7,0,0,0,.687.028l4.209-2.1a.7.7,0,0,0,0-1.249l-4.209-2.1A.7.7,0,0,0,24,6.7v4.209A.7.7,0,0,0,24.33,11.508ZM25.4,7.839l1.936.968L25.4,9.775Z" transform="translate(-8.567 -2.493)" fill="#b98036"/>
  <path id="Path_16444" data-name="Path 16444" d="M24.313,13.627A6.313,6.313,0,1,0,18,7.313,6.313,6.313,0,0,0,24.313,13.627Zm0-11.224a4.91,4.91,0,1,1-4.91,4.91,4.91,4.91,0,0,1,4.91-4.91Z" transform="translate(-6.776 -1)" fill="#b98036"/>
  <path id="Path_16445" data-name="Path 16445" d="M36.7,21.209a.7.7,0,0,0,.561-.281l2.1-2.806a.7.7,0,1,0-1.122-.842l-2.1,2.806a.7.7,0,0,0,.561,1.122Z" transform="translate(-12.149 -5.776)" fill="#b98036"/>
  <path id="Path_16446" data-name="Path 16446" d="M39.14,25.227a.7.7,0,0,0,.982.14l2.806-2.1a.7.7,0,1,0-.842-1.122l-2.806,2.1a.7.7,0,0,0-.14.982Z" transform="translate(-13.045 -7.269)" fill="#b98036"/>
  <path id="Path_16447" data-name="Path 16447" d="M46.879,28.554a.7.7,0,0,0-.842-.561l-3.507.7a.7.7,0,1,0,.14,1.4h.14l3.507-.7a.7.7,0,0,0,.561-.842Z" transform="translate(-13.909 -9.053)" fill="#b98036"/>
  <path id="Path_16448" data-name="Path 16448" d="M2.7,23.627h8.418a.7.7,0,0,0,.7-.7V11.7a.7.7,0,0,0-.7-.7H2.7a.7.7,0,0,0-.7.7V22.925A.7.7,0,0,0,2.7,23.627ZM3.4,12.4h7.015v9.821H3.4Z" transform="translate(-2 -3.985)" fill="#b98036"/>
  <path id="Path_16449" data-name="Path 16449" d="M10.1,15H8.7a.7.7,0,1,0,0,1.4h1.4a.7.7,0,1,0,0-1.4Z" transform="translate(-3.791 -5.179)" fill="#b98036"/>
  <path id="Path_16450" data-name="Path 16450" d="M9.507,19H6.7a.7.7,0,0,0,0,1.4H9.507a.7.7,0,1,0,0-1.4Z" transform="translate(-3.194 -6.373)" fill="#b98036"/>
  <path id="Path_16451" data-name="Path 16451" d="M9.507,23H6.7a.7.7,0,1,0,0,1.4H9.507a.7.7,0,1,0,0-1.4Z" transform="translate(-3.194 -7.567)" fill="#b98036"/>
  <path id="Path_16452" data-name="Path 16452" d="M28.035,27a.7.7,0,0,0-1.221.7l3.094,5.352L18.684,37.262h-.105l-1.824,1.052-1.214.7a1.4,1.4,0,0,1-1.915-.512l-1.4-2.427a1.4,1.4,0,0,1,.526-1.852l2.427-1.4,1.754,3.037a.7.7,0,1,0,1.221-.7l-1.81-3.129,8.8-7.26.288.5a.7.7,0,0,0,1.221-.7l-.7-1.214a.711.711,0,0,0-1.059-.189l-9.821,8.1-2.988,1.726a2.806,2.806,0,0,0-1.291,3.178l-.7.4a2.1,2.1,0,0,0,1.052,3.928,2.147,2.147,0,0,0,1.052-.281l.7-.4a2.722,2.722,0,0,0,1.228.73,2.659,2.659,0,0,0,.737.1,2.764,2.764,0,0,0,1.4-.379l.61-.351,1.4,2.434a2.1,2.1,0,1,0,3.641-2.1l-1.277-2.224,10.522-3.949a.7.7,0,0,0,.365-1ZM11.465,38.988a.7.7,0,1,1-.7-1.214l.61-.351.7,1.214ZM20.7,40.952a.7.7,0,0,1-1.214.7l-1.4-2.434,1.164-.666H19.3Z" transform="translate(-4.1 -7.568)" fill="#b98036"/>
</svg>
