<svg id="chat" xmlns="http://www.w3.org/2000/svg" width="41.676" height="41.648" viewBox="0 0 41.676 41.648">
  <g id="Group_64" data-name="Group 64">
    <path id="Path_16431" data-name="Path 16431" d="M347.042,48.413h-9.179a.61.61,0,0,0,0,1.221h9.179a.61.61,0,0,0,0-1.221Z" transform="translate(-309.801 -44.486)" fill="#b98036"/>
    <path id="Path_16432" data-name="Path 16432" d="M347.042,94.833h-9.179a.61.61,0,0,0,0,1.221h9.179a.61.61,0,0,0,0-1.221Z" transform="translate(-309.801 -87.128)" fill="#b98036"/>
    <path id="Path_16433" data-name="Path 16433" d="M23.7,107.136l-2.778-.755-.834-1.247a1.634,1.634,0,0,0-2.3-.426v-1.473A6.677,6.677,0,0,0,20.709,98.4h.479a1.563,1.563,0,0,0,1.561-1.561V95.742a1.56,1.56,0,0,0-.76-1.337V91.219a5.784,5.784,0,0,0-5.777-5.777H11.937A5.784,5.784,0,0,0,6.16,91.219V94.4a1.56,1.56,0,0,0-.76,1.337v1.093A1.563,1.563,0,0,0,6.962,98.4h.479a6.677,6.677,0,0,0,2.925,4.839v1.473a1.634,1.634,0,0,0-2.3.426l-.834,1.247-2.778.755A6.046,6.046,0,0,0,0,112.959v.6a.61.61,0,1,0,1.221,0v-.6a4.823,4.823,0,0,1,3.551-4.645l2.683-.729,2.974,2.6a1.9,1.9,0,0,0,2.486.008l1.159-1,1.159,1a1.9,1.9,0,0,0,2.486-.008l2.974-2.6,2.683.729a4.823,4.823,0,0,1,3.551,4.645v4.048a1.923,1.923,0,0,1-1.921,1.921H23.673V116a.61.61,0,0,0-1.221,0v2.929H5.7V116a.61.61,0,0,0-1.221,0v2.929H3.142a1.923,1.923,0,0,1-1.921-1.921v-.595a.61.61,0,1,0-1.221,0v.595a3.146,3.146,0,0,0,3.142,3.142H25.008a3.146,3.146,0,0,0,3.142-3.142v-4.048A6.046,6.046,0,0,0,23.7,107.136ZM21.529,95.742v1.093a.341.341,0,0,1-.34.34h-.442V95.4h.442A.341.341,0,0,1,21.529,95.742ZM7.4,97.176H6.962a.341.341,0,0,1-.34-.34V95.742a.341.341,0,0,1,.34-.34H7.4Zm.61-2.995H7.381V91.219a4.561,4.561,0,0,1,4.556-4.556h4.275a4.561,4.561,0,0,1,4.556,4.556v2.962h-.633a.642.642,0,0,1-.642-.642V92.252a1.837,1.837,0,0,0-2.589-1.676,6.919,6.919,0,0,1-5.661,0,1.837,1.837,0,0,0-2.589,1.676v1.288a.642.642,0,0,1-.642.642Zm.61,3.512V95.3a1.866,1.866,0,0,0,1.252-1.76V92.252a.616.616,0,0,1,.868-.562,8.142,8.142,0,0,0,6.661,0,.616.616,0,0,1,.868.562v1.288a1.866,1.866,0,0,0,1.252,1.76v2.394a5.451,5.451,0,0,1-10.9,0Zm3.492,11.581a.675.675,0,0,1-.883,0L8.416,106.8l.663-.991a.416.416,0,0,1,.6-.1l3.434,2.694Zm1.958-1.662-2.488-1.952v-1.779a6.649,6.649,0,0,0,4.976,0v1.779Zm2.841,1.66a.675.675,0,0,1-.883,0l-1-.863,3.434-2.694a.416.416,0,0,1,.6.1l.663.991Z" transform="translate(0 -78.501)" fill="#b98036"/>
    <path id="Path_16434" data-name="Path 16434" d="M307.164,3.889a.61.61,0,0,0,.61-.61V2.8A2.636,2.636,0,0,0,305.141.168h-12.83A2.636,2.636,0,0,0,289.678,2.8v7.9a2.636,2.636,0,0,0,2.633,2.633h.57l-.8,3.715a.84.84,0,0,0,1.415.77l4.33-4.337a.506.506,0,0,1,.356-.147h6.956a2.636,2.636,0,0,0,2.633-2.633V6.133a.61.61,0,1,0-1.221,0V10.7a1.414,1.414,0,0,1-1.412,1.412h-6.956a1.712,1.712,0,0,0-1.22.506l-3.417,3.422.59-2.749a.974.974,0,0,0-.952-1.178h-.875A1.414,1.414,0,0,1,290.9,10.7V2.8a1.414,1.414,0,0,1,1.412-1.412h12.83A1.414,1.414,0,0,1,306.554,2.8v.477a.61.61,0,0,0,.61.61Z" transform="translate(-266.099 -0.168)" fill="#b98036"/>
  </g>
</svg>
