<svg id="customer" xmlns="http://www.w3.org/2000/svg" width="40.345" height="44.013" viewBox="0 0 40.345 44.013">
  <path id="Path_16424" data-name="Path 16424" d="M88.941,189.937V182.6a6.609,6.609,0,0,0-6.6-6.6H70.6a6.609,6.609,0,0,0-6.6,6.6v9.536h1.467V182.6a5.141,5.141,0,0,1,5.135-5.135h1.163l4.186,4.186a.734.734,0,0,0,1.037,0l4.186-4.186h1.163a5.141,5.141,0,0,1,5.135,5.135v7.335ZM76.47,180.1l-2.63-2.63H79.1Zm0,0" transform="translate(-58.132 -159.862)" fill="#b98036"/>
  <path id="Path_16425" data-name="Path 16425" d="M120,264h1.467v6.6H120Zm0,0" transform="translate(-108.997 -239.793)" fill="#b98036"/>
  <path id="Path_16426" data-name="Path 16426" d="M264,264h1.467v5.135H264Zm0,0" transform="translate(-239.793 -239.793)" fill="#b98036"/>
  <path id="Path_16427" data-name="Path 16427" d="M39.612,338.194H30.257a11.3,11.3,0,0,0-5.268-1.387c-.056-.005-.114-.007-.165-.007a11.357,11.357,0,0,0-5.435,1.385l-5.451.009A2.934,2.934,0,0,0,11,341.129a1.226,1.226,0,0,0,.01.174,2.882,2.882,0,0,0,.1.595L6.974,340l-.067-.033-2.47-1.128A3.129,3.129,0,0,0,0,341.686v.162a3.1,3.1,0,0,0,1.733,2.8l9.485,4.75a5.2,5.2,0,0,0,2.294.536h26.1a.734.734,0,0,0,.734-.734v-10.27a.734.734,0,0,0-.734-.734Zm-10.27,10.27H13.512a3.74,3.74,0,0,1-1.644-.384l-9.481-4.75a1.646,1.646,0,0,1-.92-1.482v-.162a1.663,1.663,0,0,1,2.358-1.511l2.45,1.119.066.032L12.164,344a.737.737,0,0,0,.307.067h8.069V342.6h-6.6a1.46,1.46,0,0,1-1.46-1.4.711.711,0,0,0-.007-.073,1.467,1.467,0,0,1,1.467-1.461h5.626a.732.732,0,0,0,.359-.094l.176-.1a9.96,9.96,0,0,1,4.7-1.207.71.71,0,0,0,.135.014,9.807,9.807,0,0,1,4.407,1.093Zm9.536,0H30.809v-8.8h8.069Zm0,0" transform="translate(0 -305.918)" fill="#b98036"/>
  <path id="Path_16428" data-name="Path 16428" d="M352,432h1.467v1.467H352Zm0,0" transform="translate(-319.724 -392.388)" fill="#b98036"/>
  <path id="Path_16429" data-name="Path 16429" d="M141.868,14.671A5.875,5.875,0,0,0,147.737,8.8V5.868a5.868,5.868,0,0,0-11.737,0V8.8A5.875,5.875,0,0,0,141.868,14.671Zm-4.4-8.8a4.4,4.4,0,0,1,8.8,0V8.8a4.4,4.4,0,0,1-8.8,0Zm0,0" transform="translate(-123.53 0)" fill="#b98036"/>
  <path id="Path_16430" data-name="Path 16430" d="M169.467,36.6a1.472,1.472,0,0,1,.979-1.384l-.49-1.383A2.94,2.94,0,0,0,168,36.6v.734h1.467Zm0,0" transform="translate(-152.596 -30.73)" fill="#b98036"/>
</svg>
