<svg xmlns="http://www.w3.org/2000/svg" width="22.001" height="30" viewBox="0 0 22.001 30">
  <path id="Path_1" data-name="Path 1" d="M74.99,30a1.987,1.987,0,0,1-1.414-.586l-9-9A2,2,0,1,1,67.4,17.586l5.586,5.586V2a2,2,0,1,1,4,0V23.172l5.586-5.586A2,2,0,1,1,85.4,20.414l-9,9A1.987,1.987,0,0,1,74.99,30Zm-9-12a1,1,0,0,0-.707,1.707l9,9a1,1,0,0,0,1.414,0h0l9-9a1,1,0,1,0-1.414-1.414l-6.44,6.439a.5.5,0,0,1-.854-.354V2a1,1,0,1,0-2,0V24.379a.5.5,0,0,1-.854.354L66.7,18.293A1,1,0,0,0,65.989,18Z" transform="translate(-63.989 0)" fill="#b6946b"/>
</svg>
