<svg id="instagram" xmlns="http://www.w3.org/2000/svg" width="28.348" height="28.354" viewBox="0 0 28.348 28.354">
  <path id="Path_3" data-name="Path 3" d="M28.725,8.336a10.361,10.361,0,0,0-.659-3.44A7.263,7.263,0,0,0,23.917.748a10.387,10.387,0,0,0-3.44-.659C18.96.017,18.478,0,14.628,0S10.3.017,8.785.083a10.363,10.363,0,0,0-3.44.659A6.918,6.918,0,0,0,2.83,2.382,6.981,6.981,0,0,0,1.2,4.891a10.388,10.388,0,0,0-.659,3.44c-.072,1.518-.089,2-.089,5.849s.017,4.331.083,5.844a10.36,10.36,0,0,0,.659,3.44,7.262,7.262,0,0,0,4.149,4.149,10.389,10.389,0,0,0,3.44.659c1.512.067,1.994.083,5.844.083s4.331-.016,5.844-.083a10.358,10.358,0,0,0,3.44-.659,7.252,7.252,0,0,0,4.149-4.149,10.4,10.4,0,0,0,.659-3.44c.066-1.512.083-1.994.083-5.844s-.006-4.331-.072-5.844ZM26.172,19.912a7.771,7.771,0,0,1-.487,2.631,4.7,4.7,0,0,1-2.692,2.692,7.8,7.8,0,0,1-2.631.487c-1.5.067-1.944.083-5.727.083s-4.237-.016-5.727-.083a7.768,7.768,0,0,1-2.631-.487,4.363,4.363,0,0,1-1.628-1.058,4.408,4.408,0,0,1-1.058-1.628A7.8,7.8,0,0,1,3.1,19.918c-.067-1.5-.083-1.944-.083-5.727s.016-4.237.083-5.727a7.768,7.768,0,0,1,.487-2.631A4.31,4.31,0,0,1,4.653,4.2,4.4,4.4,0,0,1,6.281,3.146a7.8,7.8,0,0,1,2.631-.487c1.5-.066,1.944-.083,5.727-.083s4.237.017,5.727.083A7.772,7.772,0,0,1,23,3.146,4.36,4.36,0,0,1,24.626,4.2a4.407,4.407,0,0,1,1.058,1.629,7.8,7.8,0,0,1,.487,2.631c.066,1.5.083,1.944.083,5.727s-.017,4.226-.083,5.722Zm0,0" transform="translate(-0.449 0)" fill="#e3e3e3"/>
  <path id="Path_4" data-name="Path 4" d="M132.233,124.5a7.284,7.284,0,1,0,7.284,7.284A7.286,7.286,0,0,0,132.233,124.5Zm0,12.008a4.725,4.725,0,1,1,4.725-4.725,4.726,4.726,0,0,1-4.725,4.725Zm0,0" transform="translate(-118.053 -117.604)" fill="#e3e3e3"/>
  <path id="Path_5" data-name="Path 5" d="M365.851,90.3a1.7,1.7,0,1,1-1.7-1.7A1.7,1.7,0,0,1,365.851,90.3Zm0,0" transform="translate(-342.399 -83.694)" fill="#e3e3e3"/>
</svg>
