<svg xmlns="http://www.w3.org/2000/svg" width="21.214" height="27" viewBox="0 0 21.214 27">
  <g id="location" transform="translate(-5.625 -2.25)">
    <path id="Path_2" data-name="Path 2" d="M17.2,18.643a4.821,4.821,0,1,1,4.821-4.821A4.821,4.821,0,0,1,17.2,18.643Zm0-7.714a2.893,2.893,0,1,0,2.893,2.893A2.893,2.893,0,0,0,17.2,10.929Z" transform="translate(-0.964 -0.964)" fill="#c18e40"/>
    <path id="Path_3" data-name="Path 3" d="M16.232,29.25,8.1,19.656q-.169-.216-.335-.435a10.5,10.5,0,0,1-2.137-6.364,10.607,10.607,0,1,1,21.214,0A10.5,10.5,0,0,1,24.7,19.219v0s-.289.38-.333.431ZM9.3,18.059s.225.3.277.361l6.655,7.849L22.9,18.41c.042-.053.268-.352.269-.353a8.583,8.583,0,0,0,1.746-5.2,8.679,8.679,0,1,0-17.357,0,8.587,8.587,0,0,0,1.749,5.2Z" transform="translate(0 0)" fill="#c18e40"/>
  </g>
</svg>
