<svg xmlns="http://www.w3.org/2000/svg" width="22.675" height="15.283" viewBox="0 0 22.675 15.283">
  <g id="mail" transform="translate(0.25 -85.083)">
    <g id="Group_70" data-name="Group 70" transform="translate(0 85.333)">
      <path id="Path_16480" data-name="Path 16480" d="M21.038,85.333H1.137A1.14,1.14,0,0,0,0,86.47V98.979a1.141,1.141,0,0,0,1.137,1.137h19.9a1.141,1.141,0,0,0,1.137-1.137V86.47A1.141,1.141,0,0,0,21.038,85.333Zm-.427.853-8.869,6.653a1.189,1.189,0,0,1-1.308,0L1.564,86.186Zm-4.738,7.091,4.833,5.97c0,.006.011.011.016.016H1.453c.005-.006.011-.01.016-.016L6.3,93.277a.427.427,0,0,0-.663-.537L.853,98.652V86.719l9.069,6.8a2.035,2.035,0,0,0,2.331,0l9.069-6.8V98.652L16.536,92.74a.427.427,0,0,0-.663.537Z" transform="translate(0 -85.333)" fill="#b98036" stroke="#b98036" stroke-width="0.5"/>
    </g>
  </g>
</svg>
