<svg xmlns="http://www.w3.org/2000/svg" width="19.632" height="19.625" viewBox="0 0 19.632 19.625">
  <path id="phone" d="M20.732,23H20.6C5.771,22.147,3.666,9.632,3.371,5.813A2.264,2.264,0,0,1,5.455,3.375H9.614a1.51,1.51,0,0,1,1.4.951l1.147,2.823a1.51,1.51,0,0,1-.332,1.63L10.225,10.4a7.072,7.072,0,0,0,5.721,5.737l1.638-1.623a1.51,1.51,0,0,1,1.638-.309l2.845,1.14A1.51,1.51,0,0,1,23,16.75v3.985A2.264,2.264,0,0,1,20.732,23ZM5.636,4.885a.755.755,0,0,0-.755.755V5.7c.348,4.468,2.574,15.036,15.806,15.791a.755.755,0,0,0,.8-.709V16.75l-2.845-1.14-2.166,2.151-.362-.046c-6.566-.823-7.458-7.39-7.458-7.458L8.61,9.9l2.144-2.166L9.621,4.885Z" transform="translate(-3.364 -3.375)" fill="#c18e40"/>
</svg>
