<svg xmlns="http://www.w3.org/2000/svg" width="34.897" height="28.354" viewBox="0 0 34.897 28.354">
  <path id="Path_6" data-name="Path 6" d="M34.9,51.357a14.916,14.916,0,0,1-4.122,1.13,7.114,7.114,0,0,0,3.147-3.954,14.3,14.3,0,0,1-4.537,1.732A7.154,7.154,0,0,0,17.01,55.156a7.367,7.367,0,0,0,.166,1.631A20.25,20.25,0,0,1,2.43,49.3a7.156,7.156,0,0,0,2.2,9.562A7.065,7.065,0,0,1,1.4,57.985v.079a7.187,7.187,0,0,0,5.732,7.03,7.141,7.141,0,0,1-1.876.236A6.325,6.325,0,0,1,3.9,65.206a7.222,7.222,0,0,0,6.685,4.984,14.375,14.375,0,0,1-8.87,3.051A13.4,13.4,0,0,1,0,73.143a20.141,20.141,0,0,0,10.975,3.211C24.14,76.354,31.337,65.448,31.337,56c0-.316-.011-.622-.026-.925A14.272,14.272,0,0,0,34.9,51.357Z" transform="translate(0 -48)" fill="#e3e3e3"/>
</svg>
