<svg xmlns="http://www.w3.org/2000/svg" width="40.395" height="36.486" viewBox="0 0 40.395 36.486">
  <g id="video" transform="translate(0)">
    <path id="Path_16470" data-name="Path 16470" d="M45.789,35.909H41.879V32.652A.652.652,0,0,0,41.228,32H15.167a.652.652,0,0,0-.652.652v3.258H10.606A2.61,2.61,0,0,0,8,38.515V60.667a2.61,2.61,0,0,0,2.606,2.606H23.493L23.1,65.228H21.031a.652.652,0,0,0-.652.652v1.3H13.864a.652.652,0,0,0,0,1.3H42.531a.652.652,0,0,0,0-1.3H36.016v-1.3a.652.652,0,0,0-.652-.652H33.292L32.9,63.273H45.789a2.61,2.61,0,0,0,2.606-2.606V38.515A2.61,2.61,0,0,0,45.789,35.909ZM15.818,33.3H40.576V55.455H15.818ZM34.713,66.531v.652H21.682v-.652Zm-10.281-1.3.391-1.955h6.75l.391,1.955Zm22.66-4.561a1.3,1.3,0,0,1-1.3,1.3H10.606a1.3,1.3,0,0,1-1.3-1.3v-1.3H47.092Zm0-2.606H9.3V38.515a1.3,1.3,0,0,1,1.3-1.3h3.909V56.106a.652.652,0,0,0,.652.652H41.228a.652.652,0,0,0,.652-.652V37.212h3.909a1.3,1.3,0,0,1,1.3,1.3Z" transform="translate(-8 -32)" fill="#b98036"/>
    <path id="Path_16471" data-name="Path 16471" d="M216.309,119.721a.652.652,0,0,0,.634.028l6.515-3.258a.652.652,0,0,0,0-1.165l-6.515-3.258a.652.652,0,0,0-.943.583v6.515a.652.652,0,0,0,.309.554Zm.994-6.015,4.407,2.2-4.407,2.2Z" transform="translate(-199.06 -105.485)" fill="#b98036"/>
    <path id="Path_16472" data-name="Path 16472" d="M167.818,79.637A7.818,7.818,0,1,0,160,71.818a7.818,7.818,0,0,0,7.818,7.818Zm0-14.334a6.515,6.515,0,1,1-6.515,6.515A6.515,6.515,0,0,1,167.818,65.3Z" transform="translate(-147.621 -61.394)" fill="#b98036"/>
    <path id="Path_16473" data-name="Path 16473" d="M141.5,257.3H123.258v-.651a.652.652,0,1,0-1.3,0v.651h-1.3a.652.652,0,0,0,0,1.3h1.3v.652a.652.652,0,1,0,1.3,0v-.652H141.5a.652.652,0,1,0,0-1.3Z" transform="translate(-110.879 -237.757)" fill="#b98036"/>
  </g>
</svg>
