<svg id="video" xmlns="http://www.w3.org/2000/svg" width="38.962" height="44.272" viewBox="0 0 38.962 44.272">
  <path id="Path_16435" data-name="Path 16435" d="M38.1,17.871H8.6L36.932,9.663a.865.865,0,0,0,.59-1.071L36.039,3.473A4.841,4.841,0,0,0,31.41,0,4.791,4.791,0,0,0,30.078.19L3.474,7.9A4.823,4.823,0,0,0,.191,13.857l1.449,5v20.6a4.817,4.817,0,0,0,4.812,4.812h10.39a.865.865,0,1,0,0-1.729H6.452A3.086,3.086,0,0,1,3.369,39.46V27.693H37.232V39.46a3.086,3.086,0,0,1-3.083,3.083H23.759a.865.865,0,1,0,0,1.729h10.39a4.818,4.818,0,0,0,4.812-4.812V18.736a.865.865,0,0,0-.865-.865ZM22.85,25.963,26.524,19.6H31.3l-3.674,6.363Zm-6.776,0L19.748,19.6h4.778l-3.674,6.363Zm-6.775,0L12.972,19.6h4.779l-3.674,6.363Zm3.215-11.194L6.362,8.86l4.61-1.335a.858.858,0,0,0,.113.133l6.152,5.909L12.627,14.9a.861.861,0,0,0-.113-.133ZM24.1,3.888,30.253,9.8l-4.61,1.335A.842.842,0,0,0,25.53,11L19.378,5.09l4.61-1.335A.858.858,0,0,0,24.1,3.888ZM17.592,5.774l6.152,5.909-4.61,1.336a.842.842,0,0,0-.113-.133L12.869,6.975l4.61-1.335A.914.914,0,0,0,17.592,5.774ZM30.559,1.851a3.057,3.057,0,0,1,.85-.121,3.1,3.1,0,0,1,2.968,2.225L35.62,8.242l-3.469,1a.879.879,0,0,0-.114-.133L25.886,3.2ZM2.117,11.034A3.06,3.06,0,0,1,3.955,9.558l.508-.147a.879.879,0,0,0,.113.133l6.152,5.909L3.094,17.664,1.852,13.376a3.061,3.061,0,0,1,.265-2.343ZM3.369,19.6h7.607L7.3,25.963H3.369Zm26.257,6.363L33.3,19.6h3.933v6.363Zm0,0" transform="translate(0 0)" fill="#b98036" fill-rule="evenodd"/>
  <path id="Path_16436" data-name="Path 16436" d="M205.393,349.642a.864.864,0,0,0-.432-.749l-7.6-4.386a.865.865,0,0,0-1.3.749v8.772a.864.864,0,0,0,1.3.748l7.6-4.386a.864.864,0,0,0,.432-.749Zm-7.6,2.888v-5.776l5,2.888Zm0,0" transform="translate(-179.113 -314.612)" fill="#b98036" fill-rule="evenodd"/>
  <path id="Path_16437" data-name="Path 16437" d="M225.638,492a.865.865,0,1,0,.865.865A.866.866,0,0,0,225.638,492Zm0,0" transform="translate(-205.337 -449.458)" fill="#b98036" fill-rule="evenodd"/>
</svg>
