<svg xmlns="http://www.w3.org/2000/svg" width="41.994" height="32.714" viewBox="0 0 41.994 32.714">
  <g id="web-search-engine" transform="translate(0)">
    <g id="Group_65" data-name="Group 65">
      <path id="Path_16453" data-name="Path 16453" d="M422.248,229.393a2.105,2.105,0,0,0,3.1,1.859l.564.564a.615.615,0,1,0,.87-.87l-.564-.564a2.106,2.106,0,1,0-3.966-.989Zm2.983,0a.872.872,0,0,1-.234.594l-.025.023-.023.025a.875.875,0,1,1,.282-.642Z" transform="translate(-387.615 -213.285)" fill="#b98036"/>
      <path id="Path_16454" data-name="Path 16454" d="M41.379,67.922H39.695a.615.615,0,0,0,0,1.23h1.069V76.7H33.211V69.152h3.613a.615.615,0,1,0,0-1.23h-.252a16.494,16.494,0,0,0-5.632-7.982A16.208,16.208,0,0,0,21.1,56.572c-.07,0,0,0-.2,0a16.344,16.344,0,0,0-8.3,2.319.615.615,0,0,0,.633,1.055,15.034,15.034,0,0,1,3.668-1.58,13.449,13.449,0,0,0-3.116,4.915H9.346A15.221,15.221,0,0,1,11,61.573a.615.615,0,0,0-.813-.924,16.32,16.32,0,0,0-4.769,7.272H.615A.615.615,0,0,0,0,68.537v8.783a.615.615,0,0,0,.615.615H5.422a16.494,16.494,0,0,0,5.632,7.982A16.208,16.208,0,0,0,20.9,89.284c.032,0,.048,0,.2,0a16.208,16.208,0,0,0,9.845-3.367,16.494,16.494,0,0,0,5.632-7.982h4.806a.615.615,0,0,0,.615-.615V68.537A.615.615,0,0,0,41.379,67.922Zm-8.783,0H29.478a24.967,24.967,0,0,0-.826-3.409H33.56a14.934,14.934,0,0,1,1.715,3.409Zm-18.831,0a23.073,23.073,0,0,1,.877-3.409h5.739v3.409Zm7.847-3.409h5.74a23.082,23.082,0,0,1,.877,3.409H21.612Zm0-6.66c2.065.337,3.962,2.357,5.268,5.43H21.612Zm11.022,5.43h-4.42a13.477,13.477,0,0,0-3.1-4.9,15.312,15.312,0,0,1,7.52,4.9ZM20.382,57.853v5.429H15.114C16.42,60.211,18.316,58.192,20.382,57.853ZM8.426,64.512h4.915a24.963,24.963,0,0,0-.826,3.409H6.721A15.041,15.041,0,0,1,8.426,64.512ZM7.37,76.7H1.23V69.152H31.981V76.7H10.241a.615.615,0,0,0,0,1.23h2.275a24.967,24.967,0,0,0,.826,3.409H8.434a14.934,14.934,0,0,1-1.715-3.409H7.37a.615.615,0,0,0,0-1.23Zm13.012,5.87V88c-2.065-.337-3.962-2.357-5.268-5.43Zm-5.74-1.23a23.083,23.083,0,0,1-.877-3.409h6.617v3.409ZM21.612,88V82.574H26.88C25.574,85.645,23.678,87.664,21.612,88Zm0-6.66V77.935h6.617a23.073,23.073,0,0,1-.877,3.409H21.612ZM9.359,82.574h4.42a13.477,13.477,0,0,0,3.1,4.9,15.312,15.312,0,0,1-7.52-4.9Zm15.753,4.9a13.47,13.47,0,0,0,3.1-4.9h4.42A15.311,15.311,0,0,1,25.112,87.476Zm8.448-6.132H28.653a24.964,24.964,0,0,0,.826-3.409h5.8A14.936,14.936,0,0,1,33.56,81.344Z" transform="translate(0 -56.571)" fill="#b98036"/>
    </g>
  </g>
</svg>
