<svg id="youtube" xmlns="http://www.w3.org/2000/svg" width="37.435" height="28.354" viewBox="0 0 37.435 28.354">
  <path id="Path_7" data-name="Path 7" d="M201.465,111.237l-8.27-4.525a1.519,1.519,0,0,0-2.248,1.333v8.973a1.516,1.516,0,0,0,2.239,1.338l8.271-4.447a1.519,1.519,0,0,0,.009-2.671Zm-8.325,4.651v-6.706l6.181,3.382Zm0,0" transform="translate(-176.985 -98.735)" fill="#e3e3e3"/>
  <path id="Path_8" data-name="Path 8" d="M37.159,6.692l0-.017c-.032-.3-.347-2.981-1.65-4.345A6.091,6.091,0,0,0,31.472.439L31.286.416,31.221.409C26.272.05,18.8,0,18.723,0H18.71C18.635,0,11.161.05,6.168.409L6.1.416,5.926.437a5.938,5.938,0,0,0-4.011,1.95A8.972,8.972,0,0,0,.279,6.654l0,.038C.263,6.817,0,9.8,0,12.8v2.8c0,3,.264,5.981.275,6.107l0,.019A8.477,8.477,0,0,0,1.92,26.017a6.216,6.216,0,0,0,4.17,1.865c.152.017.283.032.373.048l.087.012c2.857.272,11.817.406,12.2.411h.023c.075,0,7.549-.049,12.5-.409l.065-.007c.063-.008.133-.016.21-.024a5.8,5.8,0,0,0,3.976-1.9,8.971,8.971,0,0,0,1.637-4.266l0-.038c.011-.126.276-3.11.276-6.107V12.8c0-3-.264-5.981-.276-6.107ZM35.24,15.6c0,2.774-.242,5.63-.265,5.892A6.965,6.965,0,0,1,33.9,24.531a3.608,3.608,0,0,1-2.589,1.2l-.234.026c-4.787.346-11.979.4-12.31.4-.372-.005-9.2-.141-11.97-.4-.142-.023-.3-.041-.457-.059a4.1,4.1,0,0,1-2.806-1.172l-.02-.022A6.319,6.319,0,0,1,2.459,21.5c-.017-.2-.266-3.088-.266-5.9V12.8c0-2.77.242-5.624.265-5.891a6.823,6.823,0,0,1,1.076-3.04A3.785,3.785,0,0,1,6.178,2.617L6.357,2.6c4.856-.348,12.1-.4,12.36-.4s7.5.054,12.314.4l.193.023a3.928,3.928,0,0,1,2.687,1.217l.009.009A6.421,6.421,0,0,1,34.974,6.9c.017.187.266,3.083.266,5.9Zm0,0" transform="translate(0.001 0)" fill="#e3e3e3"/>
</svg>
